<?xml version="1.0" standalone="no"?>
<!DOCTYPE svg PUBLIC "-//W3C//DTD SVG 20010904//EN"
 "http://www.w3.org/TR/2001/REC-SVG-20010904/DTD/svg10.dtd">
<svg version="1.0" xmlns="http://www.w3.org/2000/svg"
 width="3000.000000pt" height="500.000000pt" viewBox="0 0 3000.000000 500.000000"
 preserveAspectRatio="xMidYMid meet">
<metadata>
Created by potrace 1.16, written by Peter Selinger 2001-2019
</metadata>
<g transform="translate(0.000000,500.000000) scale(0.100000,-0.100000)"
fill="#000000" stroke="none">
<path d="M643 3310 c-369 -97 -642 -550 -594 -987 43 -396 263 -707 566 -800
57 -17 126 -18 1345 -18 707 0 1297 3 1312 8 40 11 98 66 119 112 47 102 -5
237 -104 274 -19 8 -394 11 -1190 11 -732 0 -1195 4 -1252 10 -55 7 -111 20
-142 35 -63 28 -152 110 -188 171 -40 68 -65 182 -65 293 1 229 86 383 258
464 l67 32 1245 5 1245 5 47 27 c58 35 88 82 95 151 9 92 -30 168 -108 207
-37 20 -67 20 -1311 19 -1212 0 -1276 -1 -1345 -19z"/>
<path d="M4093 3316 c-142 -46 -249 -170 -273 -317 -15 -93 -14 -1286 2 -1347
16 -66 79 -126 146 -141 92 -19 176 13 222 85 l28 45 5 532 c4 542 8 600 44
639 26 29 80 22 160 -22 40 -21 511 -307 1047 -635 537 -328 996 -605 1022
-616 98 -44 244 -42 340 2 72 34 149 111 186 187 l33 67 3 680 c2 374 0 695
-3 713 -8 43 -76 118 -122 133 -19 6 -61 9 -93 7 -73 -5 -131 -41 -162 -101
-23 -42 -23 -44 -28 -587 -4 -480 -7 -549 -22 -582 -31 -70 -66 -71 -187 -6
-40 22 -508 306 -1040 631 -531 324 -991 602 -1021 616 -44 20 -73 26 -150 28
-61 2 -110 -2 -137 -11z"/>
<path d="M8063 3310 c-369 -97 -642 -550 -594 -987 43 -393 257 -699 561 -799
52 -17 123 -19 1190 -22 751 -2 1162 0 1215 7 208 28 382 187 424 389 16 78
14 277 -4 347 -45 173 -175 309 -344 359 -48 14 -158 16 -929 16 l-875 0 -43
-25 c-113 -66 -133 -226 -40 -320 29 -28 57 -45 88 -53 34 -9 274 -12 861 -12
811 0 814 0 841 -21 80 -63 74 -200 -11 -256 -26 -17 -83 -18 -1028 -21 -1070
-3 -1159 0 -1252 43 -63 28 -152 110 -188 171 -40 68 -65 182 -65 293 1 229
86 383 258 464 l67 32 1265 5 c1259 5 1265 5 1305 26 22 11 53 40 70 63 24 34
30 54 33 109 3 79 -18 125 -81 176 l-39 31 -1306 2 c-1251 2 -1310 1 -1379
-17z"/>
<path d="M11389 3307 c-98 -52 -134 -181 -77 -278 43 -73 398 -368 632 -523
273 -183 493 -268 749 -291 l67 -7 0 -269 c0 -293 3 -315 58 -372 42 -44 80
-59 147 -59 67 0 105 15 147 59 55 57 58 79 58 372 l0 269 63 7 c382 40 708
216 1242 670 139 118 170 163 170 246 0 148 -154 243 -290 180 -22 -10 -96
-67 -165 -126 -423 -363 -664 -506 -917 -546 -101 -15 -484 -16 -592 0 -269
39 -505 175 -919 528 -81 69 -165 134 -187 144 -56 26 -131 25 -186 -4z"/>
<path  d="M15323 3316 c-142 -46 -249 -170 -273 -317 -15 -93 -14 -1286 2
-1347 16 -66 79 -126 146 -141 92 -19 176 13 222 85 l28 45 5 532 c4 542 8
600 44 639 26 29 80 22 160 -22 40 -21 511 -307 1047 -635 537 -328 996 -605
1022 -616 98 -44 244 -42 340 2 72 34 149 111 186 187 l33 67 3 680 c2 374 0
695 -3 713 -8 43 -76 118 -122 133 -19 6 -61 9 -93 7 -73 -5 -131 -41 -162
-101 -23 -42 -23 -44 -28 -587 -4 -480 -7 -549 -22 -582 -31 -70 -66 -71 -187
-6 -40 22 -508 306 -1040 631 -531 324 -991 602 -1021 616 -44 20 -73 26 -150
28 -61 2 -110 -2 -137 -11z"/>
<path d="M18809 3307 c-66 -35 -104 -102 -103 -181 0 -35 7 -74 17 -92 23 -44
80 -91 126 -104 27 -7 516 -9 1558 -8 l1518 3 47 27 c58 35 88 82 95 151 9 92
-30 168 -108 207 -37 20 -69 20 -1572 20 l-1534 0 -44 -23z"/>
<path d="M22400 3316 c35 -33 980 -716 991 -716 15 0 449 280 449 290 0 5
-132 105 -294 224 l-294 216 -433 0 c-369 0 -431 -2 -419 -14z"/>
<path d="M865 2606 c-34 -15 -92 -76 -106 -113 -5 -13 -9 -48 -9 -77 0 -74 33
-132 95 -171 l48 -30 1066 -3 c742 -2 1081 0 1117 8 98 21 156 96 156 201 0
76 -34 138 -96 174 l-43 25 -1099 0 c-886 -1 -1105 -3 -1129 -14z"/>
<path d="M18835 2611 c-52 -13 -94 -40 -112 -74 -16 -28 -18 -63 -18 -312 1
-267 2 -283 24 -345 31 -89 80 -165 143 -226 65 -64 117 -96 200 -126 l63 -23
1385 0 c762 0 1397 3 1412 8 40 11 98 66 119 112 43 94 4 216 -86 268 -15 9
-375 13 -1395 17 -1110 4 -1379 8 -1398 18 -48 27 -62 68 -62 179 l0 103 1363
2 c1247 3 1365 4 1392 20 150 83 152 293 4 368 -37 20 -68 20 -1521 19 -816
-1 -1496 -4 -1513 -8z"/>
<path d="M24260 2250 c-112 -81 -206 -153 -208 -158 -1 -5 168 -136 377 -291
l380 -281 428 2 427 3 -586 438 c-323 240 -593 437 -600 437 -7 -1 -105 -68
-218 -150z"/>
<path d="M24764 1180 c-56 -22 -72 -103 -29 -145 35 -36 115 -36 150 0 30 29
34 94 8 120 -32 33 -85 43 -129 25z"/>
<path d="M19570 1147 c-185 -44 -292 -200 -277 -407 9 -135 72 -232 182 -281
69 -31 209 -38 290 -14 105 30 157 113 105 165 -26 26 -38 25 -129 -6 -164
-57 -253 3 -253 170 1 148 67 226 192 226 27 0 73 -9 102 -20 81 -31 114 -27
137 17 16 32 14 57 -9 86 -45 57 -224 91 -340 64z"/>
<path d="M21195 1125 c-14 -13 -25 -30 -25 -37 0 -7 -11 -143 -24 -303 -27
-327 -27 -334 37 -349 46 -12 84 0 108 34 14 20 22 74 38 281 27 336 27 363
-1 383 -36 25 -104 21 -133 -9z"/>
<path d="M23828 1122 c-23 -27 -25 -44 -48 -337 l-23 -308 27 -24 c15 -13 40
-23 57 -23 32 0 85 23 91 40 2 5 25 -1 53 -16 42 -21 60 -25 117 -22 82 4 137
38 182 112 27 42 31 59 34 141 4 83 2 99 -21 147 -13 30 -38 64 -54 76 -62 44
-182 53 -229 17 -11 -8 -23 -15 -28 -15 -5 0 -5 43 -2 99 7 92 6 101 -13 120
-16 16 -34 21 -70 21 -42 0 -53 -4 -73 -28z m277 -334 c46 -41 46 -148 0 -194
-29 -29 -83 -32 -115 -6 -28 23 -39 115 -20 162 25 61 88 78 135 38z"/>
<path d="M20420 937 c-132 -37 -200 -143 -187 -288 13 -148 124 -228 300 -217
108 7 178 51 222 138 23 44 31 152 16 208 -15 54 -73 119 -129 144 -55 25
-163 32 -222 15z m143 -147 c31 -25 43 -82 27 -139 -15 -58 -41 -81 -90 -81
-69 0 -102 63 -79 155 20 78 86 108 142 65z"/>
<path d="M21877 939 c-140 -33 -219 -169 -188 -322 14 -64 62 -126 125 -160
34 -18 57 -22 141 -22 116 0 159 17 217 85 43 49 58 98 58 181 0 90 -33 159
-95 198 -73 46 -169 61 -258 40z m126 -140 c44 -20 58 -83 37 -161 -13 -46
-43 -68 -91 -68 -53 0 -79 35 -79 107 0 106 56 157 133 122z"/>
<path d="M22674 943 c-12 -2 -32 -15 -45 -29 -21 -22 -24 -40 -37 -217 -9
-106 -12 -204 -9 -218 11 -45 82 -63 137 -34 35 18 37 23 50 165 6 63 13 124
16 135 10 33 36 55 64 55 49 0 53 -16 46 -177 -4 -82 -3 -153 1 -159 25 -34
86 -43 133 -19 35 18 37 23 50 165 6 63 13 124 16 135 10 33 36 55 64 55 49 0
53 -16 45 -169 -4 -76 -4 -147 -1 -158 13 -40 84 -55 136 -28 35 18 36 22 51
175 13 147 8 218 -20 264 -48 76 -180 86 -268 20 l-32 -24 -24 24 c-53 53
-162 58 -231 11 -28 -19 -36 -21 -36 -9 0 14 -58 46 -77 43 -4 -1 -18 -4 -29
-6z"/>
<path d="M24753 935 c-17 -7 -36 -22 -41 -32 -17 -31 -45 -409 -32 -432 24
-47 102 -56 146 -18 27 23 28 28 45 228 19 224 17 239 -37 259 -33 13 -42 12
-81 -5z"/>
<path d="M25393 940 c-49 -10 -103 -37 -120 -59 -18 -23 -16 -67 4 -86 18 -18
46 -17 146 6 50 12 62 11 85 -2 15 -8 28 -25 30 -37 3 -20 -1 -22 -50 -22 -76
0 -167 -18 -204 -41 -40 -24 -54 -57 -54 -124 0 -42 5 -60 25 -83 62 -73 192
-85 255 -22 15 15 20 16 20 6 0 -37 73 -58 124 -35 35 16 43 46 55 189 10 124
5 185 -17 226 -41 76 -163 110 -299 84z"/>
</g>
</svg>
